<?xml version="1.0" encoding="UTF-8" standalone="no"?><!DOCTYPE svg PUBLIC "-//W3C//DTD SVG 1.1//EN" "http://www.w3.org/Graphics/SVG/1.1/DTD/svg11.dtd"><!-- Generated by graphviz version 2.40.1 (20161225.0304)
 --><!-- Title: %0 Pages: 1 --><svg xmlns="http://www.w3.org/2000/svg" xmlns:xlink="http://www.w3.org/1999/xlink" width="537pt" height="332pt" viewBox="0.00 0.00 537.30 332.00">
<g id="graph0" class="graph" transform="scale(1 1) rotate(0) translate(4 328)">
<title>%0</title>
<polygon fill="#ffffff" stroke="transparent" points="-4,4 -4,-328 533.3016,-328 533.3016,4 -4,4"/>
<!-- :command&#45;legacy -->
<g id="node1" class="node">
<title>:command-legacy</title>
<polygon fill="#ffb74d" stroke="#000000" points="116.4444,-324 -.1484,-324 -.1484,-288 116.4444,-288 116.4444,-324"/>
<text text-anchor="middle" x="58.148" y="-301.8" font-family="Times New Roman" font-size="14.00" fill="#000000">:command-legacy</text>
</g>
<!-- :architecture -->
<g id="node2" class="node">
<title>:architecture</title>
<ellipse fill="#ffb74d" stroke="#000000" cx="206.148" cy="-18" rx="59.0833" ry="18"/>
<text text-anchor="middle" x="206.148" y="-13.8" font-family="Times New Roman" font-size="14.00" fill="#000000">:architecture</text>
</g>
<!-- :command&#45;legacy&#45;&gt;:architecture -->
<g id="edge1" class="edge">
<title>:command-legacy-&gt;:architecture</title>
<path fill="none" stroke="#000000" d="M56.9478,-287.855C56.155,-269.5234 56.0532,-240.4895 61.148,-216 75.1676,-148.6114 73.8761,-124.7046 118.148,-72 130.0987,-57.773 146.7991,-46.2139 162.4436,-37.4948"/>
<polygon fill="#000000" stroke="#000000" points="164.299,-40.4724 171.4889,-32.6906 161.0155,-34.2903 164.299,-40.4724"/>
</g>
<!-- :coroutines -->
<g id="node3" class="node">
<title>:coroutines</title>
<ellipse fill="#ffb74d" stroke="#000000" cx="124.148" cy="-234" rx="53.8905" ry="18"/>
<text text-anchor="middle" x="124.148" y="-229.8" font-family="Times New Roman" font-size="14.00" fill="#000000">:coroutines</text>
</g>
<!-- :command&#45;legacy&#45;&gt;:coroutines -->
<g id="edge2" class="edge">
<title>:command-legacy-&gt;:coroutines</title>
<path fill="none" stroke="#000000" d="M74.8026,-287.8314C82.7981,-279.109 92.5062,-268.5183 101.1892,-259.0459"/>
<polygon fill="#000000" stroke="#000000" points="104.0045,-261.1543 108.1818,-251.4177 98.8444,-256.4242 104.0045,-261.1543"/>
</g>
<!-- :coroutines&#45;&gt;:architecture -->
<g id="edge3" class="edge">
<title>:coroutines-&gt;:architecture</title>
<path fill="none" stroke="#000000" d="M120.5684,-215.652C115.399,-184.14 109.0075,-118.6302 134.148,-72 141.438,-58.4787 153.7474,-47.3786 166.146,-38.8343"/>
<polygon fill="#000000" stroke="#000000" points="168.1759,-41.6899 174.6832,-33.3289 164.3822,-35.807 168.1759,-41.6899"/>
</g>
<!-- :extensions -->
<g id="node4" class="node">
<title>:extensions</title>
<ellipse fill="#ffb74d" stroke="#000000" cx="206.148" cy="-90" rx="54.472" ry="18"/>
<text text-anchor="middle" x="206.148" y="-85.8" font-family="Times New Roman" font-size="14.00" fill="#000000">:extensions</text>
</g>
<!-- :coroutines&#45;&gt;:extensions -->
<g id="edge4" class="edge">
<title>:coroutines-&gt;:extensions</title>
<path fill="none" stroke="#000000" d="M129.4467,-215.9488C135.3862,-197.1813 146.0605,-167.3405 160.148,-144 166.2871,-133.8286 174.3315,-123.6549 181.9734,-114.925"/>
<polygon fill="#000000" stroke="#000000" points="184.7056,-117.1218 188.8122,-107.3551 179.5114,-112.4292 184.7056,-117.1218"/>
</g>
<!-- :utility -->
<g id="node5" class="node">
<title>:utility</title>
<ellipse fill="#ffb74d" stroke="#000000" cx="206.148" cy="-162" rx="36.592" ry="18"/>
<text text-anchor="middle" x="206.148" y="-157.8" font-family="Times New Roman" font-size="14.00" fill="#000000">:utility</text>
</g>
<!-- :coroutines&#45;&gt;:utility -->
<g id="edge5" class="edge">
<title>:coroutines-&gt;:utility</title>
<path fill="none" stroke="#000000" d="M143.5809,-216.937C154.5093,-207.3413 168.2955,-195.2363 180.1439,-184.8328"/>
<polygon fill="#000000" stroke="#000000" points="182.7731,-187.1821 187.9782,-177.954 178.1544,-181.922 182.7731,-187.1821"/>
</g>
<!-- :extensions&#45;&gt;:architecture -->
<g id="edge6" class="edge">
<title>:extensions-&gt;:architecture</title>
<path fill="none" stroke="#000000" d="M206.148,-71.8314C206.148,-64.131 206.148,-54.9743 206.148,-46.4166"/>
<polygon fill="#000000" stroke="#000000" points="209.6481,-46.4132 206.148,-36.4133 202.6481,-46.4133 209.6481,-46.4132"/>
</g>
<!-- :utility&#45;&gt;:architecture -->
<g id="edge7" class="edge">
<title>:utility-&gt;:architecture</title>
<path fill="none" stroke="#000000" d="M181.7167,-148.4248C167.5951,-139.0927 151.0937,-125.2757 143.148,-108 136.4623,-93.4638 136.4623,-86.5362 143.148,-72 148.9521,-59.3807 159.3214,-48.6068 169.9935,-40.0784"/>
<polygon fill="#000000" stroke="#000000" points="172.219,-42.7849 178.1431,-34.0011 168.0343,-37.1734 172.219,-42.7849"/>
</g>
<!-- :utility&#45;&gt;:extensions -->
<g id="edge8" class="edge">
<title>:utility-&gt;:extensions</title>
<path fill="none" stroke="#000000" d="M206.148,-143.8314C206.148,-136.131 206.148,-126.9743 206.148,-118.4166"/>
<polygon fill="#000000" stroke="#000000" points="209.6481,-118.4132 206.148,-108.4133 202.6481,-118.4133 209.6481,-118.4132"/>
</g>
<!-- :exposed -->
<g id="node6" class="node">
<title>:exposed</title>
<polygon fill="#ffb74d" stroke="#000000" points="282.9128,-324 217.3832,-324 217.3832,-288 282.9128,-288 282.9128,-324"/>
<text text-anchor="middle" x="250.148" y="-301.8" font-family="Times New Roman" font-size="14.00" fill="#000000">:exposed</text>
</g>
<!-- :exposed&#45;&gt;:architecture -->
<g id="edge9" class="edge">
<title>:exposed-&gt;:architecture</title>
<path fill="none" stroke="#000000" d="M257.3676,-287.9386C272.4537,-247.2233 303.2106,-146.0596 269.148,-72 263.3439,-59.3807 252.9746,-48.6068 242.3025,-40.0784"/>
<polygon fill="#000000" stroke="#000000" points="244.2617,-37.1734 234.1529,-34.0011 240.077,-42.7849 244.2617,-37.1734"/>
</g>
<!-- :exposed&#45;&gt;:utility -->
<g id="edge10" class="edge">
<title>:exposed-&gt;:utility</title>
<path fill="none" stroke="#000000" d="M244.5754,-287.7623C237.0375,-263.0928 223.5218,-218.8598 214.6953,-189.9731"/>
<polygon fill="#000000" stroke="#000000" points="217.9449,-188.6303 211.6754,-180.0896 211.2504,-190.6759 217.9449,-188.6303"/>
</g>
<!-- :menu -->
<g id="node7" class="node">
<title>:menu</title>
<polygon fill="#ffb74d" stroke="#000000" points="199.148,-324 145.148,-324 145.148,-288 199.148,-288 199.148,-324"/>
<text text-anchor="middle" x="172.148" y="-301.8" font-family="Times New Roman" font-size="14.00" fill="#000000">:menu</text>
</g>
<!-- :menu&#45;&gt;:utility -->
<g id="edge11" class="edge">
<title>:menu-&gt;:utility</title>
<path fill="none" stroke="#000000" d="M177.5739,-287.5809C180.5606,-277.1773 184.2398,-263.9098 187.148,-252 192.1911,-231.3476 197.1272,-207.8366 200.7037,-190.025"/>
<polygon fill="#000000" stroke="#000000" points="204.1787,-190.4951 202.6933,-180.0049 197.3127,-189.1317 204.1787,-190.4951"/>
</g>
<!-- :scoreboard&#45;legacy -->
<g id="node8" class="node">
<title>:scoreboard-legacy</title>
<polygon fill="#ffb74d" stroke="#000000" points="423.6442,-324 300.6518,-324 300.6518,-288 423.6442,-288 423.6442,-324"/>
<text text-anchor="middle" x="362.148" y="-301.8" font-family="Times New Roman" font-size="14.00" fill="#000000">:scoreboard-legacy</text>
</g>
<!-- :scoreboard&#45;legacy&#45;&gt;:architecture -->
<g id="edge13" class="edge">
<title>:scoreboard-legacy-&gt;:architecture</title>
<path fill="none" stroke="#000000" d="M360.6704,-287.9937C356.418,-246.0781 340.9198,-140.3578 289.148,-72 278.5759,-58.041 263.2767,-46.6412 248.6858,-37.974"/>
<polygon fill="#000000" stroke="#000000" points="250.1711,-34.7935 239.7411,-32.9321 246.7338,-40.8915 250.1711,-34.7935"/>
</g>
<!-- :scoreboard&#45;legacy&#45;&gt;:extensions -->
<g id="edge12" class="edge">
<title>:scoreboard-legacy-&gt;:extensions</title>
<path fill="none" stroke="#000000" d="M350.5675,-287.5689C331.1722,-257.0257 290.4674,-194.2986 252.148,-144 244.834,-134.3996 236.3787,-124.236 228.7278,-115.3474"/>
<polygon fill="#000000" stroke="#000000" points="231.1877,-112.8424 221.9833,-107.5955 225.9067,-117.4371 231.1877,-112.8424"/>
</g>
<!-- :scoreboard&#45;legacy&#45;&gt;:utility -->
<g id="edge14" class="edge">
<title>:scoreboard-legacy-&gt;:utility</title>
<path fill="none" stroke="#000000" d="M342.3905,-287.7623C314.1229,-261.6691 262.1444,-213.689 231.2074,-185.1318"/>
<polygon fill="#000000" stroke="#000000" points="233.5447,-182.5261 223.8227,-178.3151 228.7967,-187.6697 233.5447,-182.5261"/>
</g>
<!-- :serialization -->
<g id="node9" class="node">
<title>:serialization</title>
<polygon fill="#ffb74d" stroke="#000000" points="529.4557,-324 440.8403,-324 440.8403,-288 529.4557,-288 529.4557,-324"/>
<text text-anchor="middle" x="485.148" y="-301.8" font-family="Times New Roman" font-size="14.00" fill="#000000">:serialization</text>
</g>
<!-- :serialization&#45;&gt;:architecture -->
<g id="edge15" class="edge">
<title>:serialization-&gt;:architecture</title>
<path fill="none" stroke="#000000" d="M475.8942,-287.9149C453.3651,-245.3715 391.7756,-137.6084 314.148,-72 296.3179,-56.9306 273.5629,-44.7532 253.542,-35.8034"/>
<polygon fill="#000000" stroke="#000000" points="254.8339,-32.5489 244.2659,-31.7954 252.0574,-38.9747 254.8339,-32.5489"/>
</g>
<!-- :serialization&#45;&gt;:extensions -->
<g id="edge16" class="edge">
<title>:serialization-&gt;:extensions</title>
<path fill="none" stroke="#000000" d="M462.4568,-287.7992C424.6906,-257.5873 346.4333,-195.3255 279.148,-144 265.4733,-133.5689 250.1955,-122.2209 237.1647,-112.6321"/>
<polygon fill="#000000" stroke="#000000" points="239.0976,-109.7092 228.9655,-106.6123 234.9549,-115.3517 239.0976,-109.7092"/>
</g>
</g>
</svg>